<mxfile host="app.diagrams.net" agent="Mozilla/5.0 (Windows NT 10.0; Win64; x64) AppleWebKit/537.36 (KHTML, like Gecko) Chrome/131.0.0.0 Safari/537.36" version="26.0.2">
  <diagram id="C5RBs43oDa-KdzZeNtuy" name="Page-1">
    <mxGraphModel dx="1900" dy="883" grid="1" gridSize="10" guides="1" tooltips="1" connect="1" arrows="1" fold="1" page="1" pageScale="1" pageWidth="827" pageHeight="1169" math="0" shadow="0">
      <root>
        <mxCell id="WIyWlLk6GJQsqaUBKTNV-0" />
        <mxCell id="WIyWlLk6GJQsqaUBKTNV-1" parent="WIyWlLk6GJQsqaUBKTNV-0" />
        <mxCell id="s31qBSAKNXmRd7B36Ofu-0" value="" style="swimlane;startSize=0;" vertex="1" parent="WIyWlLk6GJQsqaUBKTNV-1">
          <mxGeometry x="200" y="50" width="520" height="1070" as="geometry">
            <mxRectangle x="200" y="40" width="50" height="40" as="alternateBounds" />
          </mxGeometry>
        </mxCell>
        <mxCell id="s31qBSAKNXmRd7B36Ofu-1" value="&lt;span style=&quot;font-size: 18px;&quot;&gt;consulter les offres&lt;/span&gt;" style="ellipse;whiteSpace=wrap;html=1;" vertex="1" parent="s31qBSAKNXmRd7B36Ofu-0">
          <mxGeometry x="80" y="940" width="280" height="50" as="geometry" />
        </mxCell>
        <mxCell id="s31qBSAKNXmRd7B36Ofu-2" value="&lt;span style=&quot;font-size: 18px;&quot;&gt;rechercher&amp;nbsp;&lt;/span&gt;&lt;span style=&quot;font-size: 18px;&quot;&gt;les offres&lt;/span&gt;" style="ellipse;whiteSpace=wrap;html=1;" vertex="1" parent="s31qBSAKNXmRd7B36Ofu-0">
          <mxGeometry x="80" y="1000" width="280" height="50" as="geometry" />
        </mxCell>
        <mxCell id="s31qBSAKNXmRd7B36Ofu-7" value="&lt;span style=&quot;font-size: 18px;&quot;&gt;gerer les condidateur&lt;/span&gt;" style="ellipse;whiteSpace=wrap;html=1;" vertex="1" parent="s31qBSAKNXmRd7B36Ofu-0">
          <mxGeometry x="74" y="600" width="280" height="50" as="geometry" />
        </mxCell>
        <mxCell id="s31qBSAKNXmRd7B36Ofu-8" value="&lt;span style=&quot;font-size: 18px;&quot;&gt;gerer les offres&lt;/span&gt;" style="ellipse;whiteSpace=wrap;html=1;" vertex="1" parent="s31qBSAKNXmRd7B36Ofu-0">
          <mxGeometry x="74" y="540" width="280" height="50" as="geometry" />
        </mxCell>
        <mxCell id="s31qBSAKNXmRd7B36Ofu-9" value="&lt;span data-lucid-content=&quot;{&amp;quot;t&amp;quot;:&amp;quot;gestion des films&amp;quot;,&amp;quot;m&amp;quot;:[{&amp;quot;s&amp;quot;:0,&amp;quot;n&amp;quot;:&amp;quot;s&amp;quot;,&amp;quot;v&amp;quot;:18.666666666666668,&amp;quot;e&amp;quot;:17}]}&quot; data-lucid-type=&quot;application/vnd.lucid.text&quot;&gt;&lt;font style=&quot;font-size: 18px;&quot;&gt;cree une offre d&#39;emploie&lt;/font&gt;&lt;/span&gt;" style="ellipse;whiteSpace=wrap;html=1;" vertex="1" parent="s31qBSAKNXmRd7B36Ofu-0">
          <mxGeometry x="74" y="370" width="280" height="50" as="geometry" />
        </mxCell>
        <mxCell id="s31qBSAKNXmRd7B36Ofu-10" value="" style="endArrow=none;html=1;rounded=0;entryX=0;entryY=0.5;entryDx=0;entryDy=0;" edge="1" parent="s31qBSAKNXmRd7B36Ofu-0" target="s31qBSAKNXmRd7B36Ofu-8">
          <mxGeometry width="50" height="50" relative="1" as="geometry">
            <mxPoint x="-60" y="480" as="sourcePoint" />
            <mxPoint x="220" y="530" as="targetPoint" />
            <Array as="points" />
          </mxGeometry>
        </mxCell>
        <mxCell id="s31qBSAKNXmRd7B36Ofu-11" value="" style="endArrow=none;html=1;rounded=0;entryX=0;entryY=0.5;entryDx=0;entryDy=0;" edge="1" parent="s31qBSAKNXmRd7B36Ofu-0" target="s31qBSAKNXmRd7B36Ofu-9">
          <mxGeometry width="50" height="50" relative="1" as="geometry">
            <mxPoint x="-60" y="480" as="sourcePoint" />
            <mxPoint x="90" y="525" as="targetPoint" />
            <Array as="points" />
          </mxGeometry>
        </mxCell>
        <mxCell id="s31qBSAKNXmRd7B36Ofu-12" value="" style="endArrow=none;html=1;rounded=0;entryX=0;entryY=0.5;entryDx=0;entryDy=0;" edge="1" parent="s31qBSAKNXmRd7B36Ofu-0" target="s31qBSAKNXmRd7B36Ofu-7">
          <mxGeometry width="50" height="50" relative="1" as="geometry">
            <mxPoint x="-60" y="480" as="sourcePoint" />
            <mxPoint x="90" y="525" as="targetPoint" />
            <Array as="points" />
          </mxGeometry>
        </mxCell>
        <mxCell id="s31qBSAKNXmRd7B36Ofu-4" value="&lt;span style=&quot;font-size: 18px;&quot;&gt;postuler aux offres&lt;/span&gt;" style="ellipse;whiteSpace=wrap;html=1;" vertex="1" parent="s31qBSAKNXmRd7B36Ofu-0">
          <mxGeometry x="80" y="790" width="280" height="50" as="geometry" />
        </mxCell>
        <mxCell id="s31qBSAKNXmRd7B36Ofu-5" value="&lt;span style=&quot;font-size: 18px;&quot;&gt;gerer le profil&lt;/span&gt;" style="ellipse;whiteSpace=wrap;html=1;" vertex="1" parent="s31qBSAKNXmRd7B36Ofu-0">
          <mxGeometry x="80" y="730" width="280" height="50" as="geometry" />
        </mxCell>
        <mxCell id="s31qBSAKNXmRd7B36Ofu-6" value="&lt;span style=&quot;font-size: 18px;&quot;&gt;consulter postulations&lt;/span&gt;" style="ellipse;whiteSpace=wrap;html=1;" vertex="1" parent="s31qBSAKNXmRd7B36Ofu-0">
          <mxGeometry x="80" y="670" width="280" height="50" as="geometry" />
        </mxCell>
        <mxCell id="s31qBSAKNXmRd7B36Ofu-33" value="" style="endArrow=none;html=1;rounded=0;entryX=0;entryY=0.5;entryDx=0;entryDy=0;" edge="1" parent="s31qBSAKNXmRd7B36Ofu-0" target="s31qBSAKNXmRd7B36Ofu-4">
          <mxGeometry width="50" height="50" relative="1" as="geometry">
            <mxPoint x="-60" y="750" as="sourcePoint" />
            <mxPoint x="220" y="760" as="targetPoint" />
            <Array as="points" />
          </mxGeometry>
        </mxCell>
        <mxCell id="s31qBSAKNXmRd7B36Ofu-35" value="" style="endArrow=none;html=1;rounded=0;entryX=0;entryY=0.5;entryDx=0;entryDy=0;" edge="1" parent="s31qBSAKNXmRd7B36Ofu-0" target="s31qBSAKNXmRd7B36Ofu-6">
          <mxGeometry width="50" height="50" relative="1" as="geometry">
            <mxPoint x="-60" y="750" as="sourcePoint" />
            <mxPoint x="90" y="695" as="targetPoint" />
            <Array as="points" />
          </mxGeometry>
        </mxCell>
        <mxCell id="s31qBSAKNXmRd7B36Ofu-43" value="&lt;span style=&quot;font-size: 18px;&quot;&gt;s&#39;inscrire&lt;/span&gt;" style="ellipse;whiteSpace=wrap;html=1;" vertex="1" parent="s31qBSAKNXmRd7B36Ofu-0">
          <mxGeometry x="80" y="880" width="280" height="50" as="geometry" />
        </mxCell>
        <mxCell id="s31qBSAKNXmRd7B36Ofu-45" value="&lt;span style=&quot;font-size: 18px;&quot;&gt;archiver les offres&lt;/span&gt;" style="ellipse;whiteSpace=wrap;html=1;" vertex="1" parent="s31qBSAKNXmRd7B36Ofu-0">
          <mxGeometry x="74" y="160" width="280" height="50" as="geometry" />
        </mxCell>
        <mxCell id="s31qBSAKNXmRd7B36Ofu-46" value="&lt;span style=&quot;font-size: 18px;&quot;&gt;gerer les tags&lt;/span&gt;" style="ellipse;whiteSpace=wrap;html=1;" vertex="1" parent="s31qBSAKNXmRd7B36Ofu-0">
          <mxGeometry x="74" y="100" width="280" height="50" as="geometry" />
        </mxCell>
        <mxCell id="s31qBSAKNXmRd7B36Ofu-47" value="&lt;span data-lucid-content=&quot;{&amp;quot;t&amp;quot;:&amp;quot;gestion des films&amp;quot;,&amp;quot;m&amp;quot;:[{&amp;quot;s&amp;quot;:0,&amp;quot;n&amp;quot;:&amp;quot;s&amp;quot;,&amp;quot;v&amp;quot;:18.666666666666668,&amp;quot;e&amp;quot;:17}]}&quot; data-lucid-type=&quot;application/vnd.lucid.text&quot;&gt;&lt;font style=&quot;font-size: 18px;&quot;&gt;gerer les categories&lt;/font&gt;&lt;/span&gt;" style="ellipse;whiteSpace=wrap;html=1;" vertex="1" parent="s31qBSAKNXmRd7B36Ofu-0">
          <mxGeometry x="74" y="40" width="280" height="50" as="geometry" />
        </mxCell>
        <mxCell id="s31qBSAKNXmRd7B36Ofu-48" value="&lt;span style=&quot;font-size: 18px;&quot;&gt;consulter les statistiques&lt;/span&gt;" style="ellipse;whiteSpace=wrap;html=1;" vertex="1" parent="s31qBSAKNXmRd7B36Ofu-0">
          <mxGeometry x="74" y="230" width="280" height="50" as="geometry" />
        </mxCell>
        <mxCell id="s31qBSAKNXmRd7B36Ofu-49" value="&lt;span style=&quot;font-size: 18px;&quot;&gt;selectionner categories/tegs&lt;/span&gt;" style="ellipse;whiteSpace=wrap;html=1;" vertex="1" parent="s31qBSAKNXmRd7B36Ofu-0">
          <mxGeometry x="74" y="475" width="280" height="50" as="geometry" />
        </mxCell>
        <mxCell id="s31qBSAKNXmRd7B36Ofu-50" value="&lt;span data-lucid-content=&quot;{&amp;quot;t&amp;quot;:&amp;quot;gestion des films&amp;quot;,&amp;quot;m&amp;quot;:[{&amp;quot;s&amp;quot;:0,&amp;quot;n&amp;quot;:&amp;quot;s&amp;quot;,&amp;quot;v&amp;quot;:18.666666666666668,&amp;quot;e&amp;quot;:17}]}&quot; data-lucid-type=&quot;application/vnd.lucid.text&quot;&gt;&lt;font style=&quot;font-size: 18px;&quot;&gt;ce connecter&lt;/font&gt;&lt;/span&gt;" style="ellipse;whiteSpace=wrap;html=1;" vertex="1" parent="s31qBSAKNXmRd7B36Ofu-0">
          <mxGeometry x="310" y="300" width="210" height="50" as="geometry" />
        </mxCell>
        <mxCell id="s31qBSAKNXmRd7B36Ofu-51" value="" style="endArrow=none;html=1;rounded=0;entryX=0;entryY=0.5;entryDx=0;entryDy=0;" edge="1" parent="s31qBSAKNXmRd7B36Ofu-0">
          <mxGeometry width="50" height="50" relative="1" as="geometry">
            <mxPoint x="-40" y="160" as="sourcePoint" />
            <mxPoint x="74" y="65" as="targetPoint" />
            <Array as="points" />
          </mxGeometry>
        </mxCell>
        <mxCell id="s31qBSAKNXmRd7B36Ofu-52" value="" style="endArrow=none;html=1;rounded=0;entryX=0;entryY=0.5;entryDx=0;entryDy=0;" edge="1" parent="s31qBSAKNXmRd7B36Ofu-0">
          <mxGeometry width="50" height="50" relative="1" as="geometry">
            <mxPoint x="-40" y="160" as="sourcePoint" />
            <mxPoint x="74" y="255" as="targetPoint" />
            <Array as="points" />
          </mxGeometry>
        </mxCell>
        <mxCell id="s31qBSAKNXmRd7B36Ofu-53" value="" style="endArrow=none;html=1;rounded=0;entryX=0;entryY=0.5;entryDx=0;entryDy=0;" edge="1" parent="s31qBSAKNXmRd7B36Ofu-0" target="s31qBSAKNXmRd7B36Ofu-45">
          <mxGeometry width="50" height="50" relative="1" as="geometry">
            <mxPoint x="-40" y="160" as="sourcePoint" />
            <mxPoint x="84" y="265" as="targetPoint" />
            <Array as="points" />
          </mxGeometry>
        </mxCell>
        <mxCell id="s31qBSAKNXmRd7B36Ofu-54" value="" style="endArrow=none;html=1;rounded=0;entryX=0;entryY=0.5;entryDx=0;entryDy=0;" edge="1" parent="s31qBSAKNXmRd7B36Ofu-0" target="s31qBSAKNXmRd7B36Ofu-46">
          <mxGeometry width="50" height="50" relative="1" as="geometry">
            <mxPoint x="-40" y="160" as="sourcePoint" />
            <mxPoint x="84" y="195" as="targetPoint" />
            <Array as="points" />
          </mxGeometry>
        </mxCell>
        <mxCell id="s31qBSAKNXmRd7B36Ofu-64" value="" style="endArrow=open;endSize=12;dashed=1;html=1;rounded=0;entryX=0.421;entryY=1.068;entryDx=0;entryDy=0;entryPerimeter=0;" edge="1" parent="s31qBSAKNXmRd7B36Ofu-0" target="s31qBSAKNXmRd7B36Ofu-50">
          <mxGeometry width="160" relative="1" as="geometry">
            <mxPoint x="-50" y="750" as="sourcePoint" />
            <mxPoint x="400" y="660" as="targetPoint" />
            <Array as="points">
              <mxPoint x="60" y="660" />
              <mxPoint x="398" y="660" />
            </Array>
          </mxGeometry>
        </mxCell>
        <mxCell id="s31qBSAKNXmRd7B36Ofu-66" value="" style="endArrow=open;endSize=12;dashed=1;html=1;rounded=0;exitX=1;exitY=0.5;exitDx=0;exitDy=0;entryX=0.799;entryY=0.949;entryDx=0;entryDy=0;entryPerimeter=0;" edge="1" parent="s31qBSAKNXmRd7B36Ofu-0" source="s31qBSAKNXmRd7B36Ofu-43" target="s31qBSAKNXmRd7B36Ofu-50">
          <mxGeometry width="160" relative="1" as="geometry">
            <mxPoint x="330" y="680" as="sourcePoint" />
            <mxPoint x="490" y="680" as="targetPoint" />
            <Array as="points">
              <mxPoint x="478" y="905" />
            </Array>
          </mxGeometry>
        </mxCell>
        <mxCell id="s31qBSAKNXmRd7B36Ofu-72" value="-" style="endArrow=open;endSize=12;dashed=1;html=1;rounded=0;entryX=0;entryY=0;entryDx=0;entryDy=0;" edge="1" parent="s31qBSAKNXmRd7B36Ofu-0" target="s31qBSAKNXmRd7B36Ofu-50">
          <mxGeometry width="160" relative="1" as="geometry">
            <mxPoint x="-40" y="160" as="sourcePoint" />
            <mxPoint x="240" y="310" as="targetPoint" />
            <Array as="points">
              <mxPoint x="50" y="310" />
            </Array>
          </mxGeometry>
        </mxCell>
        <mxCell id="s31qBSAKNXmRd7B36Ofu-73" value="-" style="endArrow=open;endSize=12;dashed=1;html=1;rounded=0;entryX=0;entryY=1;entryDx=0;entryDy=0;" edge="1" parent="s31qBSAKNXmRd7B36Ofu-0" target="s31qBSAKNXmRd7B36Ofu-50">
          <mxGeometry width="160" relative="1" as="geometry">
            <mxPoint x="-60" y="480" as="sourcePoint" />
            <mxPoint x="200" y="360" as="targetPoint" />
            <Array as="points">
              <mxPoint x="50" y="343" />
            </Array>
          </mxGeometry>
        </mxCell>
        <mxCell id="s31qBSAKNXmRd7B36Ofu-74" value="(&lt;span style=&quot;font-size: 14px;&quot;&gt;include)&lt;/span&gt;" style="text;html=1;align=center;verticalAlign=middle;resizable=0;points=[];autosize=1;strokeColor=none;fillColor=none;" vertex="1" parent="s31qBSAKNXmRd7B36Ofu-0">
          <mxGeometry x="40" y="280" width="80" height="30" as="geometry" />
        </mxCell>
        <mxCell id="s31qBSAKNXmRd7B36Ofu-75" value="(&lt;span style=&quot;font-size: 14px;&quot;&gt;include)&lt;/span&gt;" style="text;html=1;align=center;verticalAlign=middle;resizable=0;points=[];autosize=1;strokeColor=none;fillColor=none;" vertex="1" parent="s31qBSAKNXmRd7B36Ofu-0">
          <mxGeometry x="40" y="340" width="80" height="30" as="geometry" />
        </mxCell>
        <mxCell id="s31qBSAKNXmRd7B36Ofu-76" value="(&lt;span style=&quot;font-size: 14px;&quot;&gt;include)&lt;/span&gt;" style="text;html=1;align=center;verticalAlign=middle;resizable=0;points=[];autosize=1;strokeColor=none;fillColor=none;" vertex="1" parent="s31qBSAKNXmRd7B36Ofu-0">
          <mxGeometry x="350" y="660" width="80" height="30" as="geometry" />
        </mxCell>
        <mxCell id="s31qBSAKNXmRd7B36Ofu-78" value="(&lt;span style=&quot;font-size: 14px;&quot;&gt;extend&lt;/span&gt;&lt;span style=&quot;font-size: 14px;&quot;&gt;)&lt;/span&gt;" style="text;html=1;align=center;verticalAlign=middle;resizable=0;points=[];autosize=1;strokeColor=none;fillColor=none;" vertex="1" parent="s31qBSAKNXmRd7B36Ofu-0">
          <mxGeometry x="380" y="870" width="70" height="30" as="geometry" />
        </mxCell>
        <mxCell id="s31qBSAKNXmRd7B36Ofu-31" value="visiteur" style="shape=umlActor;verticalLabelPosition=bottom;verticalAlign=top;html=1;outlineConnect=0;" vertex="1" parent="WIyWlLk6GJQsqaUBKTNV-1">
          <mxGeometry x="80" y="950" width="50" height="80" as="geometry" />
        </mxCell>
        <mxCell id="s31qBSAKNXmRd7B36Ofu-37" value="" style="endArrow=none;html=1;rounded=0;entryX=0;entryY=0.5;entryDx=0;entryDy=0;" edge="1" parent="WIyWlLk6GJQsqaUBKTNV-1" target="s31qBSAKNXmRd7B36Ofu-1">
          <mxGeometry width="50" height="50" relative="1" as="geometry">
            <mxPoint x="140" y="1000" as="sourcePoint" />
            <mxPoint x="290" y="885" as="targetPoint" />
            <Array as="points" />
          </mxGeometry>
        </mxCell>
        <mxCell id="s31qBSAKNXmRd7B36Ofu-38" value="" style="endArrow=none;html=1;rounded=0;entryX=0;entryY=0.5;entryDx=0;entryDy=0;" edge="1" parent="WIyWlLk6GJQsqaUBKTNV-1" target="s31qBSAKNXmRd7B36Ofu-2">
          <mxGeometry width="50" height="50" relative="1" as="geometry">
            <mxPoint x="140" y="1000" as="sourcePoint" />
            <mxPoint x="290" y="995" as="targetPoint" />
            <Array as="points" />
          </mxGeometry>
        </mxCell>
        <mxCell id="s31qBSAKNXmRd7B36Ofu-39" value="administrateur" style="shape=umlActor;verticalLabelPosition=bottom;verticalAlign=top;html=1;outlineConnect=0;" vertex="1" parent="WIyWlLk6GJQsqaUBKTNV-1">
          <mxGeometry x="100" y="160" width="50" height="80" as="geometry" />
        </mxCell>
        <mxCell id="s31qBSAKNXmRd7B36Ofu-40" value="recruteur" style="shape=umlActor;verticalLabelPosition=bottom;verticalAlign=top;html=1;outlineConnect=0;" vertex="1" parent="WIyWlLk6GJQsqaUBKTNV-1">
          <mxGeometry x="90" y="490" width="50" height="80" as="geometry" />
        </mxCell>
        <mxCell id="s31qBSAKNXmRd7B36Ofu-44" value="" style="endArrow=none;html=1;rounded=0;entryX=-0.009;entryY=0.493;entryDx=0;entryDy=0;entryPerimeter=0;" edge="1" parent="WIyWlLk6GJQsqaUBKTNV-1" target="s31qBSAKNXmRd7B36Ofu-43">
          <mxGeometry width="50" height="50" relative="1" as="geometry">
            <mxPoint x="140" y="1000" as="sourcePoint" />
            <mxPoint x="290" y="1015" as="targetPoint" />
            <Array as="points" />
          </mxGeometry>
        </mxCell>
        <mxCell id="s31qBSAKNXmRd7B36Ofu-32" value="utilisateur" style="shape=umlActor;verticalLabelPosition=bottom;verticalAlign=top;html=1;outlineConnect=0;" vertex="1" parent="WIyWlLk6GJQsqaUBKTNV-1">
          <mxGeometry x="80" y="755" width="50" height="80" as="geometry" />
        </mxCell>
        <mxCell id="s31qBSAKNXmRd7B36Ofu-34" value="" style="endArrow=none;html=1;rounded=0;entryX=0;entryY=0.5;entryDx=0;entryDy=0;" edge="1" parent="WIyWlLk6GJQsqaUBKTNV-1" target="s31qBSAKNXmRd7B36Ofu-5">
          <mxGeometry width="50" height="50" relative="1" as="geometry">
            <mxPoint x="140" y="800" as="sourcePoint" />
            <mxPoint x="290" y="795" as="targetPoint" />
            <Array as="points" />
          </mxGeometry>
        </mxCell>
      </root>
    </mxGraphModel>
  </diagram>
</mxfile>
